<?xml version="1.0" encoding="UTF-8" standalone="no"?>
<!DOCTYPE svg PUBLIC "-//W3C//DTD SVG 1.1//EN" "http://www.w3.org/Graphics/SVG/1.1/DTD/svg11.dtd">
<svg width="100%" height="100%" viewBox="0 0 512 512" version="1.1" xmlns="http://www.w3.org/2000/svg" xmlns:xlink="http://www.w3.org/1999/xlink" xml:space="preserve" xmlns:serif="http://www.serif.com/" style="fill-rule:evenodd;clip-rule:evenodd;stroke-linecap:round;stroke-linejoin:round;stroke-miterlimit:1.5;">
    <g id="calendar">
        <g id="task">
            <path d="M448,256C448,160 416,128 256,128C96,128 64,160 64,256C64,416 96,448 256,448C416,448 448,416 448,256Z" style="fill:none;stroke:rgb(51,51,51);stroke-width:64px;"/>
            <path d="M160,80L160,125.388" style="fill:none;stroke:rgb(51,51,51);stroke-width:64px;"/>
            <path d="M352,80L352,125.388" style="fill:none;stroke:rgb(51,51,51);stroke-width:64px;"/>
        </g>
        <g id="Layer3">
            <path d="M176,255.985L176,256" style="fill:none;stroke:rgb(51,51,51);stroke-width:64px;"/>
            <path d="M256,256L256,256.015" style="fill:none;stroke:rgb(51,51,51);stroke-width:64px;"/>
            <path d="M336,256.015L336,256.03" style="fill:none;stroke:rgb(51,51,51);stroke-width:64px;"/>
            <path d="M256,335.985L256,336" style="fill:none;stroke:rgb(51,51,51);stroke-width:64px;"/>
            <path d="M336,335.97L336,335.985" style="fill:none;stroke:rgb(51,51,51);stroke-width:64px;"/>
            <path d="M176,336L176,336.015" style="fill:none;stroke:rgb(51,51,51);stroke-width:64px;"/>
        </g>
    </g>
</svg>
