<?xml version="1.0" encoding="UTF-8" standalone="no"?>
<!DOCTYPE svg PUBLIC "-//W3C//DTD SVG 1.1//EN" "http://www.w3.org/Graphics/SVG/1.1/DTD/svg11.dtd">
<svg width="100%" height="100%" viewBox="0 0 512 512" version="1.1" xmlns="http://www.w3.org/2000/svg" xmlns:xlink="http://www.w3.org/1999/xlink" xml:space="preserve" xmlns:serif="http://www.serif.com/" style="fill-rule:evenodd;clip-rule:evenodd;stroke-linecap:round;stroke-linejoin:round;stroke-miterlimit:1.5;">
    <g id="save">
        <path d="M256,64C96,64 64,96 64,256C64,416 96,448 256,448C416,448 448,416 448,256C448,198.075 447.691,160 416,160C384,160 352,128 352,96C352,64.309 313.925,64 256,64Z" style="fill:none;stroke:rgb(51,51,51);stroke-width:64px;"/>
        <g id="Layer4">
            <path d="M352,416C352,400 352.936,351.986 352,320C351.78,312.477 352.014,288 320,288L192,288C159.986,288 159.755,311.629 160,320C160.468,352 160,416 160,416" style="fill:none;stroke:rgb(51,51,51);stroke-width:64px;"/>
        </g>
        <g id="Layer41" serif:id="Layer4">
            <path d="M288,176L160,176" style="fill:none;stroke:rgb(51,51,51);stroke-width:64px;"/>
        </g>
    </g>
</svg>
