<?xml version="1.0" encoding="UTF-8" standalone="no"?>
<!DOCTYPE svg PUBLIC "-//W3C//DTD SVG 1.1//EN" "http://www.w3.org/Graphics/SVG/1.1/DTD/svg11.dtd">
<svg width="100%" height="100%" viewBox="0 0 512 512" version="1.1" xmlns="http://www.w3.org/2000/svg" xmlns:xlink="http://www.w3.org/1999/xlink" xml:space="preserve" xmlns:serif="http://www.serif.com/" style="fill-rule:evenodd;clip-rule:evenodd;stroke-linecap:round;stroke-linejoin:round;stroke-miterlimit:1.5;">
    <g id="user">
        <g id="task">
            <path d="M448,352C448,297.655 416,256 384,256C320,256 320,288 256,288C192,288 192,256 128,256C96,256 64,297.655 64,352C64,416 96,448 256,448C416,448 448,416 448,352Z" style="fill:none;stroke:rgb(51,51,51);stroke-width:64px;"/>
            <path d="M256,192C224,192 192,160 192,128C192,96 224,64 256,64C288,64 320,96 320,128C320,160 288,192 256,192Z" style="fill:none;stroke:rgb(51,51,51);stroke-width:64px;"/>
        </g>
    </g>
</svg>
